Coordinates
version=1
nRows=38
nColumns=12
inDegrees=yes

Units are S.I. units (second, meters, Newtons, ...)
Angles are in degrees

endheader
time	SC_y	SC_z	SC_x	AC_y	AC_z	AC_x	GH_y	GH_z	GH_yy	EL_x	PS_y
       0.0              -29.24          30.26          63.28          60.68          4.377          1.055          75.86          41.26         -110.2          44.76          108.4
  0.006101              -29.23          30.26          63.28          60.68          4.375          1.055          75.82          41.26         -110.2          44.76          108.4
    0.0122              -29.23          30.25          63.28          60.68          4.373          1.055          75.79          41.27         -110.2          44.76          108.4
    0.0183              -29.23          30.25          63.28          60.68          4.371          1.054          75.75          41.27         -110.2          44.77          108.4
   0.02441              -29.23          30.24          63.28          60.69          4.369          1.054          75.71          41.27         -110.2          44.77          108.4
   0.03051              -29.23          30.24          63.28          60.69          4.367          1.054          75.67          41.27         -110.2          44.77          108.4
   0.03661              -29.23          30.23          63.28          60.69          4.365          1.054          75.63          41.28         -110.2          44.77          108.4
   0.04271              -29.23          30.23          63.28          60.69          4.362          1.054          75.58          41.28         -110.2          44.77          108.3
   0.04881              -29.23          30.22          63.27          60.69          4.359          1.053          75.53          41.28         -110.2          44.78          108.3
   0.05491              -29.23          30.22          63.27          60.69          4.357          1.053          75.47          41.28         -110.2          44.78          108.3
   0.06101              -29.22          30.21          63.27           60.7          4.353          1.053          75.42          41.29         -110.2          44.78          108.3
   0.06711              -29.22           30.2          63.27           60.7           4.35          1.053          75.35          41.29         -110.2          44.78          108.3
   0.07322              -29.22          30.19          63.27           60.7          4.346          1.052          75.28           41.3         -110.2          44.79          108.3
   0.07932              -29.22          30.19          63.27           60.7          4.343          1.052          75.21           41.3         -110.2          44.79          108.3
   0.08542              -29.22          30.18          63.26          60.71          4.338          1.052          75.13           41.3         -110.2          44.79          108.2
   0.09152              -29.21          30.17          63.26          60.71          4.334          1.051          75.05          41.31         -110.2           44.8          108.2
   0.09762              -29.21          30.16          63.26          60.71          4.329          1.051          74.95          41.31         -110.2           44.8          108.2
    0.1037              -29.21          30.14          63.26          60.72          4.323           1.05          74.85          41.32         -110.2          44.81          108.2
    0.1098              -29.21          30.13          63.25          60.72          4.317           1.05          74.74          41.33         -110.2          44.81          108.1
    0.1159               -29.2          30.12          63.25          60.73          4.311          1.049          74.62          41.33         -110.2          44.82          108.1
     0.122               -29.2           30.1          63.25          60.73          4.304          1.048          74.48          41.34         -110.2          44.83          108.1
    0.1281               -29.2          30.09          63.24          60.74          4.296          1.048          74.33          41.35         -110.3          44.83          108.1
    0.1342              -29.19          30.07          63.24          60.74          4.287          1.047          74.17          41.36         -110.3          44.84          108.0
    0.1403              -29.19          30.05          63.23          60.75          4.278          1.046          73.99          41.37         -110.3          44.85          108.0
    0.1464              -29.18          30.02          63.23          60.76          4.267          1.045          73.79          41.38         -110.3          44.86          107.9
    0.1525              -29.17           30.0          63.22          60.77          4.255          1.044          73.56          41.39         -110.3          44.87          107.9
    0.1586              -29.17          29.97          63.21          60.77          4.242          1.043          73.31          41.41         -110.3          44.88          107.8
    0.1647              -29.16          29.94          63.21          60.79          4.227          1.042          73.03          41.43         -110.3          44.89          107.7
    0.1708              -29.15           29.9           63.2           60.8           4.21           1.04          72.71          41.44         -110.3          44.91          107.7
    0.1769              -29.14          29.86          63.19          60.81          4.191          1.038          72.35          41.46         -110.4          44.92          107.6
     0.183              -29.13          29.81          63.18          60.83          4.169          1.036          71.94          41.49         -110.4          44.94          107.5
    0.1891              -29.12          29.76          63.16          60.84          4.144          1.034          71.46          41.52         -110.4          44.97          107.4
    0.1952               -29.1          29.69          63.15          60.86          4.115          1.032          70.91          41.55         -110.4          44.99          107.2
    0.2013              -29.09          29.62          63.13          60.89          4.081          1.029          70.28          41.58         -110.5          45.02          107.1
    0.2074              -29.07          29.54          63.11          60.92          4.042          1.025          69.53          41.63         -110.5          45.06          106.9
    0.2135              -29.04          29.43          63.09          60.95          3.995          1.021          68.65          41.68         -110.6           45.1          106.7
    0.2196              -29.02          29.31          63.06          60.99           3.94          1.016          67.61          41.74         -110.6          45.15          106.5
    0.2257              -28.98          29.17          63.02          61.03          3.874           1.01          66.36          41.81         -110.7          45.21          106.2
